<?xml version="1.0" standalone="no"?>
<!DOCTYPE svg PUBLIC "-//W3C//DTD SVG 20010904//EN"
 "http://www.w3.org/TR/2001/REC-SVG-20010904/DTD/svg10.dtd">
<svg version="1.0" xmlns="http://www.w3.org/2000/svg"
 width="426.000000pt" height="426.000000pt" viewBox="0 0 426.000000 426.000000"
 preserveAspectRatio="xMidYMid meet">
<metadata>
Created by potrace 1.11, written by Peter Selinger 2001-2013
</metadata>
<g transform="translate(0.000000,426.000000) scale(0.100000,-0.100000)"
fill="#000000" stroke="none">
<path d="M1785 3894 c-27 -2 -115 -8 -195 -14 -410 -30 -843 -97 -926 -144
-48 -27 -79 -73 -93 -137 -14 -65 -15 -2034 -1 -2639 11 -470 18 -562 52 -621
38 -68 132 -96 233 -68 22 6 92 48 155 93 155 112 225 157 505 333 304 190
610 375 676 408 l51 26 31 -25 c18 -14 190 -146 382 -293 193 -147 431 -330
530 -406 l180 -139 67 4 c54 3 72 8 94 28 57 54 102 189 123 365 14 115 28
687 41 1595 15 1043 14 1307 -5 1361 -20 55 -79 117 -125 130 -101 28 -581 98
-860 125 -154 15 -790 27 -915 18z m615 -144 c453 -25 938 -96 1113 -162 l27
-10 0 -517 c-1 -747 -20 -1501 -39 -1501 -3 0 -58 38 -121 85 -63 47 -119 84
-125 82 -5 -2 -11 -21 -12 -43 -3 -39 -2 -39 100 -112 170 -122 157 -105 164
-212 l6 -94 -49 37 c-108 83 -196 142 -212 142 -13 0 -17 -9 -17 -33 0 -31 8
-39 130 -126 l130 -93 9 -67 c5 -37 6 -70 2 -73 -3 -4 -25 8 -49 25 -106 79
-217 152 -231 152 -17 0 -50 -44 -44 -59 1 -5 69 -59 149 -120 80 -60 151
-116 158 -124 8 -10 11 -47 9 -113 l-3 -98 -105 99 c-158 148 -291 265 -301
265 -10 0 -39 -53 -39 -73 0 -8 80 -85 178 -170 97 -85 196 -175 220 -199 l43
-45 -11 -49 c-20 -91 -31 -124 -40 -124 -5 0 -172 123 -372 273 -431 324 -681
509 -777 573 -68 45 -72 46 -103 33 -59 -24 -294 -170 -783 -486 -518 -334
-612 -393 -631 -393 -36 0 -35 -31 -60 1410 -8 481 -19 1045 -24 1252 -8 320
-7 384 5 425 19 65 73 119 139 138 162 48 475 89 826 108 142 8 574 6 740 -3z"/>
<path d="M2134 3616 c-35 -16 -90 -78 -99 -113 -3 -14 2 -41 13 -66 22 -49
138 -197 155 -197 26 0 169 40 199 56 42 21 86 62 104 96 27 52 9 146 -31 162
-26 10 -94 7 -136 -6 -38 -11 -40 -10 -84 30 -24 23 -49 42 -54 42 -5 0 -15 2
-23 5 -7 2 -27 -2 -44 -9z m74 -88 c7 -7 12 -21 12 -33 0 -27 27 -65 47 -65 8
0 28 14 44 31 26 28 34 31 66 26 20 -4 43 -13 52 -22 13 -13 13 -18 -5 -42
-25 -33 -135 -91 -182 -95 -30 -3 -36 1 -67 52 -48 79 -50 92 -19 129 29 34
34 37 52 19z"/>
<path d="M927 3413 c-9 -8 -8 -284 1 -342 6 -41 10 -46 42 -54 59 -15 63 0 56
208 -5 124 -10 182 -19 187 -15 9 -71 10 -80 1z"/>
<path d="M1691 3130 c-203 -96 -327 -371 -281 -621 29 -159 213 -421 501 -711
158 -159 186 -162 344 -36 124 98 380 356 454 457 123 167 196 318 227 471 32
160 2 284 -88 365 -151 136 -404 118 -603 -43 l-61 -49 -51 46 c-158 141 -311
183 -442 121z m247 -151 c34 -16 84 -51 113 -76 46 -42 50 -50 46 -79 -3 -18
-3 -41 -1 -51 5 -19 65 -63 87 -63 7 0 35 31 61 70 60 88 139 160 214 196 74
37 176 40 237 8 94 -49 128 -158 85 -277 -25 -70 -103 -224 -154 -306 l-33
-53 -37 67 c-21 36 -44 69 -53 72 -8 3 -25 -5 -39 -18 l-24 -24 31 -45 c16
-25 39 -62 50 -84 l20 -38 -22 -24 c-12 -13 -25 -24 -29 -24 -4 0 -37 36 -74
80 -37 44 -73 80 -80 80 -7 0 -23 -11 -36 -25 l-24 -25 50 -53 c28 -28 63 -67
78 -86 l27 -34 -28 -29 -28 -30 -87 94 -87 93 -32 -32 -33 -32 87 -89 c48 -49
87 -92 87 -95 0 -3 -16 -18 -36 -33 l-35 -27 -32 39 c-62 76 -140 154 -155
154 -9 0 -29 -12 -44 -27 l-28 -27 97 -98 c53 -53 95 -99 92 -101 -30 -27 -96
-67 -108 -67 -16 0 -138 126 -258 265 -158 183 -249 343 -260 457 -12 128 36
268 120 351 85 85 169 99 275 46z"/>
<path d="M1795 2864 c-80 -41 -126 -117 -133 -218 -5 -86 8 -106 67 -106 51 0
61 14 61 84 0 72 27 135 76 174 38 30 43 56 15 72 -27 14 -51 13 -86 -6z"/>
<path d="M3072 2630 c-44 -27 -62 -74 -61 -157 1 -102 17 -145 59 -160 116
-40 247 13 290 117 19 46 1 77 -59 103 -38 15 -50 26 -55 47 -11 59 -114 88
-174 50z m98 -74 c0 -12 -5 -38 -12 -56 -9 -29 -9 -35 7 -46 16 -12 23 -11 51
7 67 41 103 -8 41 -55 -28 -21 -45 -26 -96 -26 -57 0 -62 2 -71 26 -6 14 -10
48 -10 75 0 40 5 55 25 74 32 33 65 33 65 1z"/>
<path d="M3276 1944 c-12 -32 -4 -45 55 -89 74 -55 89 -56 89 -12 0 36 -19 58
-81 95 -43 26 -55 27 -63 6z"/>
<path d="M1395 1926 c-16 -7 -44 -25 -61 -39 -27 -23 -41 -27 -93 -27 -87 0
-127 -19 -151 -72 -25 -54 -25 -92 0 -146 16 -35 29 -47 74 -68 61 -28 184
-54 256 -54 43 0 50 4 74 35 15 19 41 65 59 103 53 113 39 230 -33 267 -35 18
-85 19 -125 1z m104 -95 c7 -12 7 -31 -1 -57 -14 -51 -76 -174 -87 -174 -36 0
-172 24 -199 36 -30 12 -62 61 -62 94 0 17 39 50 60 50 21 0 24 -4 34 -53 8
-33 46 -51 88 -42 27 6 28 9 28 61 0 45 4 59 25 79 31 32 99 35 114 6z"/>
</g>
</svg>
