<svg id="Layer_1" data-name="Layer 1" xmlns="http://www.w3.org/2000/svg" width="64" height="64" viewBox="0 0 64 64"><defs><style>.cls-1{fill:#fff;}.cls-2{fill:#806b6c;}.cls-3{fill:#e6f3f3;}.cls-4{fill:#a1d5d5;}.cls-5{fill:#c8e5e0;}</style></defs><title>baby-diper-pants</title><path class="cls-1" d="M31.51,53.31c-4.38,0-6.94-1.3-7.68-2l-.48-.45a21.28,21.28,0,0,1-9.44-5.47c-2.14-2-5-5-6.23-7.36-.24-.4-.42-.7-1.64-15.55-.46-5.64-.25-6.65.79-7.43s15.11-2.66,15.25-2.68a196.44,196.44,0,0,1,21.18-1.72h.41a61.91,61.91,0,0,1,8.77.74c4.84.75,5.1,1.2,5.49,1.89s.44.77-.57,12.82c-1,11.76-1.17,12.22-1.31,12.56a18.16,18.16,0,0,1-6.06,7,46.9,46.9,0,0,1-8.14,4.18l-.63.15A3,3,0,0,1,40,51.94c-1,.65-4.59,1.37-8.2,1.37Z"/><path class="cls-2" d="M8,16.69c.22-.16,7.5-1.46,14.29-2.29a187.11,187.11,0,0,1,21.34-1.71c6,0,12.37,1.33,12.54,1.62s-1.71,22.92-2,23.63A16.31,16.31,0,0,1,48.91,44a47.9,47.9,0,0,1-7.54,3.92l-1.84.41s-.25,1.67-.62,1.92a21.22,21.22,0,0,1-7.38,1c-3.87,0-6-1.12-6.37-1.46a10.44,10.44,0,0,1-.79-.79s-4.3-.54-9.09-5.08-5.75-6.71-5.87-6.92S8.28,25.4,8,22.35,7.7,16.94,8,16.69Z"/><path class="cls-3" d="M9.42,18A161.86,161.86,0,0,1,25.48,15.7a198.84,198.84,0,0,1,21.38-1c3.78.09,8,.87,8.06,1.06a13.3,13.3,0,0,1-.13,1.38,87,87,0,0,0-20.72-.47c-12,1.06-21,2.25-22.56,2.65s-2.06.57-2.06.44S9.42,18,9.42,18Z"/><path class="cls-4" d="M9.54,20.35s15.63-2.25,23.75-2.78a162.23,162.23,0,0,1,21.47.57,9.82,9.82,0,0,1-.25,2.4c-.12,0-6.78-.22-8.37,0s-2.57.38-2.91,1.6A9,9,0,0,0,43,24.92s-3,.15-3.06.47A21.51,21.51,0,0,0,40,29.85c.22.38,3.32.35,3.32.35s-.19,2.75.4,3.12a7.7,7.7,0,0,0,2.69.75c.72.07,6.56.16,6.59.25a8.69,8.69,0,0,1-.28,1.88c-.09,0-2.47-.1-3.78,0a13.36,13.36,0,0,0-2.37.44s-.85-2.28-1.44-2.35-1.22.35-1.13.47,1.78,2,1.63,2.22a3.31,3.31,0,0,1-.72.47A42.94,42.94,0,0,0,41.86,34c-.25,0-.66.41-.6.5A42.83,42.83,0,0,1,44.11,38l-1.32.78-.37.22a45.83,45.83,0,0,0-3.19-3.56c-.25,0-.75.37-.69.59s3.19,3.44,3.07,3.53-1.38,1.31-1.38,1.31S37.17,37.29,37,37.26s-.75.69-.68.81,3.4,3.63,3.28,3.75-.63.91-.91,1.19l-.28.28A40.55,40.55,0,0,0,35.2,40c-.22,0-.59.78-.5.94s3.41,3.25,3.41,3.25a11.31,11.31,0,0,0-.35,1.46c0,.29,0,.88,0,.88s-3.31-3.38-3.44-3.41-.47,1-.47,1,3.75,3.41,3.75,3.63.07.56,0,.56-1,.25-1,.25-3.37-3.34-3.5-3.34-.72.59-.59.75,3,2.78,2.87,2.84a26.65,26.65,0,0,1-5.65.34c-2.53-.15-3.25-.78-3.25-.78s.78-4.84-1.78-7.37-8-3.78-10.54-4-3,0-3.06-.25-.19-.63-.09-.69,5.47-.78,7-1.13,2.78-.84,2.94-1.65A14,14,0,0,0,21,30.76s2.66,0,2.91-.84A15.24,15.24,0,0,0,24,25.51c-.19-.41-.78-.53-1.56-.5a5.37,5.37,0,0,0-1.13.13s.19-3.6-.34-3.88-.94-.53-4.62-.37-6.88.53-6.88.53A7.43,7.43,0,0,1,9.54,20.35Z"/><path class="cls-4" d="M9.64,23.07c0-.09,9.53-.22,9.59,0s0,2.13,0,2.13a23.24,23.24,0,0,0-2.72.25c-.25.12-.34,1.66-.34,2.31s.12,2.28.62,2.66a7.44,7.44,0,0,0,2.56.37,14,14,0,0,1-.09,1.91c-.09.06-4.91.94-6,1.12a10.49,10.49,0,0,1-2.37.35C10.79,34.07,9.57,23.29,9.64,23.07Z"/><path class="cls-3" d="M17.48,26.32A41.12,41.12,0,0,1,23,26a23.2,23.2,0,0,1-.19,3.38,39.51,39.51,0,0,1-5.31.22C17.42,29.45,17.2,26.54,17.48,26.32Z"/><path class="cls-3" d="M41.23,26.17c.18-.05,5.69.15,5.69.37a16.4,16.4,0,0,1-.28,2.22,39,39,0,0,1-5.41.22A11,11,0,0,1,41.23,26.17Z"/><path class="cls-4" d="M44.51,25a5,5,0,0,1,.63-2.65c.47-.38,9.09-.25,9.12-.07S53.14,32.51,53,32.54s-7.44-.25-7.53-.44S45,30,45.23,29.92s2.44,0,2.5-.28A22.3,22.3,0,0,0,48.11,26,32.71,32.71,0,0,0,44.51,25Z"/><path class="cls-5" d="M39.73,46.42c-.28,0,.38-3.38,3.63-5.66s8-2.31,8-2.06a22,22,0,0,1-5.9,5.06A23.36,23.36,0,0,1,39.73,46.42Z"/><path class="cls-5" d="M12.67,38.54c-.12-.21,6.15.38,8.31,2.1a8.6,8.6,0,0,1,3.28,4.87c.35,1.41.31,1.63.19,1.59a28.77,28.77,0,0,1-2.94-1.34,15,15,0,0,0,.85-2.37l-.72-.5a21.91,21.91,0,0,1-1.07,2.18c-.09,0-1.06-.37-1.06-.37a18.42,18.42,0,0,0,1-2.56,2.83,2.83,0,0,0-.75-.35,20.31,20.31,0,0,1-1.19,2.38,12.24,12.24,0,0,0-1.31-.94,10.59,10.59,0,0,0,.88-2.16,2.76,2.76,0,0,0-1.22-.43c-.13.06-.81,1.78-.91,1.71A20.91,20.91,0,0,1,12.67,38.54Z"/></svg>