<svg id="Layer_1" data-name="Layer 1" xmlns="http://www.w3.org/2000/svg" width="64" height="64" viewBox="0 0 64 64"><defs><style>.cls-1{fill:#fff;}.cls-2{fill:#806b6c;}.cls-3{fill:#fffce2;}.cls-4{fill:#fad3cd;}.cls-5{fill:#ecf7fe;}</style></defs><title>baby-bottle</title><path class="cls-1" d="M37.63,61.54c-1.84,0-4.25,0-6.64,0s-4.63,0-6.34,0H22.5c-2.28,0-5.38-.4-7.17-2.32a5.16,5.16,0,0,1-1.34-4c.08-1.13.23-2.63.41-4.36A99.14,99.14,0,0,0,15.17,40a48.45,48.45,0,0,0-.65-5.71,23,23,0,0,1-.46-5.82,5.66,5.66,0,0,1,2.21-3.73c-.06-4.11.25-4.73.42-5.07.46-.92,1.54-2,4.07-2.17h.17a6.7,6.7,0,0,1,1-5.25,7.42,7.42,0,0,1,3.8-2.39c-.08-1.71.08-4.07,1.32-5.67a4.28,4.28,0,0,1,3.18-1.68h.51a5.84,5.84,0,0,1,4.51,2A6.36,6.36,0,0,1,36.84,9a6.86,6.86,0,0,0-.05.83,5.6,5.6,0,0,1,3.44,4.83c0,.82,0,1.52,0,2.12,2.32,0,3.69.45,4.46,1.4,1.19,1.46,1.5,4.7,1.51,6,1.21.78,2.31,2.31,2.31,5.08,0,1.16-.09,2.55-.2,4.16-.23,3.56-.53,8,.16,11.24l.33,1.53c1,4.63,1.8,8.29.58,11.47-1.48,3.88-5.46,3.89-8.65,3.9H37.63Z"/><path class="cls-2" d="M23.48,19.28s-1.56-3.87,0-5.81a6.45,6.45,0,0,1,4.44-2s-1.25-6.75,2.44-7a4.16,4.16,0,0,1,4.5,4.25,18.62,18.62,0,0,0-.07,2.5s3.32.69,3.44,3.5a19.84,19.84,0,0,1-.12,4.12s4.25-.43,5.06.57,1.12,4.25,1.06,5-.12,1.06-.12,1.06,2.43.06,2.43,3.75S45.48,40,46.54,45s2.13,8.94,1,11.88-4.5,2.56-8,2.62-13.5-.12-16.68-.06-7.13-.69-6.88-4.19S17.29,44,17.17,39.91s-1.44-9-1.13-11.19a3.71,3.71,0,0,1,2.25-2.88s-.12-4.68.19-5.31,1.13-1,2.38-1.06S23.48,19.28,23.48,19.28Z"/><path class="cls-3" d="M25.33,19.16s-1.41-3.32,0-4.35a11.33,11.33,0,0,1,4.22-1.4s-.84-6.35,1.25-6.69,2.5,2.37,2.5,3.75V13a12.6,12.6,0,0,1,2.32,1.25,3,3,0,0,1,.25.53s-.82.47-.72.57S36.36,17,36.36,17l0,1.62S34.29,16,34.17,16s-.78.41-.72.59,1.88,2.38,1.88,2.38H34.08A19.83,19.83,0,0,0,32.54,17a5.5,5.5,0,0,0-.84.41s1,1.59.88,1.59S25.64,19.25,25.33,19.16Z"/><path class="cls-2" d="M27,17.69a2.89,2.89,0,0,1,.13-1.78c.37-1,.93-1.53,1.21-1.47s.66.28.57.37A3.25,3.25,0,0,0,28,16.56c0,.82-.06,1.16-.06,1.16Z"/><path class="cls-4" d="M20.17,25.53c0-.09-.19-3.84.31-4s6.28-.22,11.44-.38a80.46,80.46,0,0,1,9.87.07,25.62,25.62,0,0,1,.54,4c-.07.12-14.66.78-14.75.66s-.07-3.22-.22-3.32a3.13,3.13,0,0,0-1,.06s.22,3.26.12,3.29-.87,0-.87,0,0-3.6-.13-3.63a7.26,7.26,0,0,0-1,.16s.25,3.34,0,3.34-.82-.06-.82-.06a25.76,25.76,0,0,0,0-3.16c-.12-.06-.94-.12-.94,0a17.9,17.9,0,0,1-.12,2.94,1.76,1.76,0,0,1-.53,0,24.1,24.1,0,0,0,0-2.94c-.13,0-.75-.09-.85.13s-.18,2.9-.28,2.9S20.17,25.53,20.17,25.53Z"/><path class="cls-5" d="M18.08,31.94A14.67,14.67,0,0,1,18,29.5c.1-.88.28-1.84.56-2s9.35.13,13,.13S41,27.25,42,27.28s2.44.28,2.5.69,0,3.25,0,3.25a1.45,1.45,0,0,0-1.31-.16,7.59,7.59,0,0,1-1.72.47,2,2,0,0,0-1.87-.59,43.12,43.12,0,0,0-4.63.84,3.43,3.43,0,0,1-1.53,0c-.28-.09-.81-.37-.84-.5a5.77,5.77,0,0,1,0-1.5c.09,0,1.5.41,1.65.22s.07-.81.07-.81-4.19-.66-4.35-.56-.28,1-.06,1a7.3,7.3,0,0,1,1.63.22c0,.09,0,1.15-.1,1.09a3.69,3.69,0,0,0-1.59-.34c-.47.09-3.13,1.22-4.22.87s-2.56-1.59-3.91-1.41S18.23,32,18.08,31.94Z"/><path class="cls-1" d="M18.33,32.91s2.78-2,3.53-2,2.22,1.62,3.34,1.65,4.5-1,5.13-1a1.73,1.73,0,0,1,1.12.57,24.38,24.38,0,0,1,0,3.72c-.19.06-1.16-.19-1.25.06s-.16.81,0,.84l1.28.22s.19,4.28.09,4.28a11.54,11.54,0,0,0-2.15.1c0,.12,0,1,.06,1s2.13.09,2.13.09.09,3,.09,4.12,0,1.6,0,1.6a7.91,7.91,0,0,0-1.94,0,1.34,1.34,0,0,0,.16.87,10.37,10.37,0,0,0,1.62.19s-.12,5.13-.22,5.13A13.91,13.91,0,0,0,29,54.5a2.1,2.1,0,0,0,.07.91,36.77,36.77,0,0,0,4.9.15c0-.15,0-1,0-1l-1.28-.15.1-5.22s.68.15.75,0a3.76,3.76,0,0,0,.06-.75l-.75-.19s0-5.75.09-5.78a8.75,8.75,0,0,0,1.28,0V41.31l-1.28,0-.15-4.22s.46.13.53-.06a5.35,5.35,0,0,0,0-.94L32.92,36l-.13-3.41a4.39,4.39,0,0,0,2.75.16c1.57-.41,3.75-.91,4.54-.66s1,.72,1.65.56,1.47-.65,2-.59a1.29,1.29,0,0,1,.82.35s-.29,2.59-.35,3.87-.09,1.84-.09,1.84S42,35.81,41.76,36a1.17,1.17,0,0,0-.22,1c.1.22,2.44,2.32,2.44,2.32s-.09.93-.09,1.28a3.77,3.77,0,0,0,0,.53s-2.06-2.1-2.19-1.91a1.86,1.86,0,0,0-.09,1.16c.12.18,2.31,2,2.34,2.09s.31,2.25.31,2.25a24.3,24.3,0,0,0-2.21-2c-.16,0-.22,1.25-.22,1.25a29.19,29.19,0,0,1,2.72,2.31l.75,3.07A36.48,36.48,0,0,0,42,46.09a4.27,4.27,0,0,0-.12,1.35c.06.12,3.72,3.44,3.75,3.53s.34,2.41.34,2.41a51.07,51.07,0,0,0-3.9-3.88c-.25,0-.5,1-.44,1.12s4.44,3.82,4.44,4A4.68,4.68,0,0,1,45.83,56l-.16.31s-4.16-3.94-4.44-3.94-.56.6-.56.6S45.08,57,45,57.09a9,9,0,0,1-1.65.1c-.13,0-3.29-3.35-3.5-3.31s-.75.59-.63.71,3.13,2.75,3,2.79-1.94,0-1.94,0-2.09-2-2.25-2-.75.53-.65.69,1.43,1.47,1.34,1.47l-16.22-.22c-2.72,0-3.5,0-4.16-1.06s.57-6.25.44-10.94S18.33,32.91,18.33,32.91Z"/><path class="cls-2" d="M20.79,35.47s1.13,0,1.13.15-.09,5-.25,5.1-.84.09-.94-.16A47.7,47.7,0,0,1,20.79,35.47Z"/><path class="cls-2" d="M42.26,34.44s.22-.63.41-.63a3.23,3.23,0,0,1,1.16,1.1c0,.15.18.9,0,.93S42.39,34.44,42.26,34.44Z"/><path class="cls-2" d="M30.36,9.75a5.19,5.19,0,0,1,.09-1.47c.16-.44.41-.56.53-.56s.75.25.69.47-.41.22-.41.75.13.78,0,.87S30.42,9.78,30.36,9.75Z"/></svg>