<svg id="Layer_1" data-name="Layer 1" xmlns="http://www.w3.org/2000/svg" width="64" height="64" viewBox="0 0 64 64"><defs><style>.cls-1{fill:#fff;}.cls-2{fill:#806b6c;}.cls-3{fill:#fad3cd;}.cls-4{fill:#e4f4fe;}.cls-5{fill:#c8e5e0;}.cls-6{fill:#fff9c5;}</style></defs><title>baby-sign-flags</title><path class="cls-1" d="M28.88,44.16a2.25,2.25,0,0,1-1.32-.46l-.34-.27c-1.55-1.29-2.52-2.08-3.12-2.56A19,19,0,0,1,20.78,43a3,3,0,0,1-1,.17,4,4,0,0,1-1.93-.53,1.73,1.73,0,0,1-.8.33,3.15,3.15,0,0,1-.71.08A6.56,6.56,0,0,1,15,42.83a2,2,0,0,1-.93-.51c-1-1-2.27-2.2-3.06-2.9l-.81.44C7.9,41.1,7.61,41.26,7,41.26a3.23,3.23,0,0,1-2.22-1A2.81,2.81,0,0,1,4,38.15C4,37.9,4,37.24,6.67,28a4.88,4.88,0,0,1-2.52.76A4.18,4.18,0,0,1,1.74,28,4.12,4.12,0,0,1,.12,23.57,4.75,4.75,0,0,1,4,19.91a4.92,4.92,0,0,1,.84-.07A4.33,4.33,0,0,1,9,22.63a73,73,0,0,0,16.51,2.7c2,.09,3.95.13,5.84.13a102.85,102.85,0,0,0,16.78-1.3c3.8-.61,6.34-1.17,7.43-1.43a5.53,5.53,0,0,1,4.08-1.86,5.61,5.61,0,0,1,1,.09,3.94,3.94,0,0,1,2.85,1.91,5.29,5.29,0,0,1,.09,4.34,4.37,4.37,0,0,1-4.17,2.45l-.53,0c1.82,10.31,1.42,10.69.64,11.42a3.33,3.33,0,0,1-2.27,1.16,2.1,2.1,0,0,1-1.44-.59,1.53,1.53,0,0,0,.38.29c-.39-.21-2.44-1.19-3.63-1.7l-.41.38c-1.78,1.66-2.42,2.2-3.25,2.34a3.31,3.31,0,0,1-.62.05,3.06,3.06,0,0,1-2.62-1.28,1.8,1.8,0,0,1-.25-.61,1.63,1.63,0,0,1-.27.64,2.71,2.71,0,0,1-2.3,1.46A2.37,2.37,0,0,1,42,43h0l-3.59-1.37L38,42a9.92,9.92,0,0,1-2.16,1.56,3.13,3.13,0,0,1-1.17.21,3.17,3.17,0,0,1-2.82-1.34,2.14,2.14,0,0,1-.73.88A4.42,4.42,0,0,1,28.88,44.16Z"/><path class="cls-2" d="M6.37,25.79s-1.74,1.83-3.52.61-.7-4.25,1.38-4.56a2.48,2.48,0,0,1,2.94,1.5,2.13,2.13,0,0,1,0,.76,71.63,71.63,0,0,0,18.29,3.18,109.73,109.73,0,0,0,23-1.19c5.35-.85,8.23-1.62,8.23-1.62a3.68,3.68,0,0,1,3.61-1.59c2.32.43,1.8,2.75,1.46,3.64S60,27.87,58.81,27.65a3.29,3.29,0,0,1-1.9-1.5l-.61.25s2.36,12.78,1.87,13.24-.89.7-1,.61a38.27,38.27,0,0,0-5-2.23c-.33.09-3,2.9-3.57,3a1.36,1.36,0,0,1-1.26-.33c-.15-.25-1.34-12.2-1.47-12.26a20,20,0,0,0-2.14.12s.13,11.62-.21,12.14-.61.61-.73.55-4.5-1.75-4.68-1.78-2.54,2.11-3,2.3-1.5,0-1.56-.31.22-11.89.22-11.89H31.81s-1.22,9.87-1.53,11-.12,1-.37,1.23-1,.55-1.13.43-4.49-3.74-4.61-3.7-3.52,2.44-4,2.63a1.72,1.72,0,0,1-1.38-.28c-.06-.12,2.91-12,2.82-12.11a10.35,10.35,0,0,0-1.1-.21S17,40.92,16.61,41a3.49,3.49,0,0,1-1.19-.09s-3.91-3.85-4.22-3.79S7.23,39.3,7,39.3s-1.1-.3-1.07-1.07S9.12,26.58,9.12,26.58,6.89,26,6.37,25.79Z"/><path class="cls-3" d="M10.19,26.86s3,.58,4.65.94a35.86,35.86,0,0,0,4.22.55l-1.9,5.91s-1.13-.77-1.25-.68a2.82,2.82,0,0,0-.31.71,11.15,11.15,0,0,1,1.35.85c0,.09-.55,1.75-.55,1.75a12,12,0,0,0-1.56-1.32c-.18,0-.46.49-.43.61s1.81,1.81,1.78,2l-.37,1.34S11.9,36,11.69,36,7,38.11,7,38.05,10,27.22,10.19,26.86Z"/><path class="cls-2" d="M10.35,29.52a10,10,0,0,1,.51-1.84c.13,0,.62,0,.62.15a5.71,5.71,0,0,1-.55,1.81A1.16,1.16,0,0,1,10.35,29.52Z"/><path class="cls-2" d="M14.63,30.65a1,1,0,0,0,.42-.92C15,29.09,13,29,13,29a21,21,0,0,0-1.07,4.55c.09.31.15.09.51.13s2.11.33,2.85-1.17S14.63,30.65,14.63,30.65Zm-.89-1c.09,0,.55.12.4.43s-.58,0-.68,0S13.65,29.67,13.74,29.67Zm.55,2.2c-.21.83-.49,1.1-.77,1.19a1.57,1.57,0,0,1-.67,0,19.38,19.38,0,0,1,.46-2S14.5,31.05,14.29,31.87Z"/><path class="cls-4" d="M22.76,28.84l4.1.43c2,.22,3.6.25,3.6.25s-.91,7.7-1,8.41l-.12.7s-1-1.59-1.25-1.5-.55.61-.43.73a10,10,0,0,1,1.47,2c0,.28,0,.92-.12.92s-4.13-3.36-4.47-3.43-4.1,2.42-4.22,2.33S22.67,29,22.76,28.84Z"/><path class="cls-2" d="M26.61,30.53c-.06-.16-.58-.22-.82-.13a50.35,50.35,0,0,0-2.57,4.71,4.42,4.42,0,0,0,1,.25c.18,0,.61-1.32.7-1.32H26c.18,0,.46,1.74.46,1.74a3,3,0,0,0,.82.13C27.53,35.88,26.67,30.68,26.61,30.53ZM26,33a1.39,1.39,0,0,1-.58-.06c-.1-.1.27-.79.43-.82S26.18,33,26,33Z"/><path class="cls-5" d="M35.2,29.42a25,25,0,0,0,4.07-.06,18.92,18.92,0,0,1,3.15-.3c0,.12,0,8-.12,7.92s-1.62-1.47-1.81-1.41-.52.55-.24.73,1.83,1.35,1.86,1.66a3.44,3.44,0,0,1,0,.7,15.16,15.16,0,0,0-2-1.53c-.27,0-.67.67-.55.73a26,26,0,0,1,2.63,1.56c0,.16.16.46,0,.46s-3.76-1.74-4.06-1.65-2.82,1.93-2.94,1.9-.24.06-.21-.1S35.17,29.46,35.2,29.42Z"/><path class="cls-2" d="M39.3,32.05s.21-.88-.24-1.28-2-.26-2.08.28a5.81,5.81,0,0,0-.71,1.74,5.81,5.81,0,0,0,.55,2.78c.22.25.4,0,.49,0s.13-.27.13-.27a6.8,6.8,0,0,0,.85.21,2.46,2.46,0,0,0,2.23-1.68C41.07,32.33,39.3,32.05,39.3,32.05Zm-1.47-.67c.22-.09.68-.09.68.28s-.07.49-.19.55-.64-.16-.64-.16S37.62,31.47,37.83,31.38ZM38.9,34.5a2.72,2.72,0,0,1-1.46.09,5,5,0,0,1,.18-1.53s1.5-.67,1.83-.09A1.19,1.19,0,0,1,38.9,34.5Z"/><path class="cls-6" d="M47.16,28.26c.09-.08,2.11-.33,4.22-.67S55.17,27,55.17,27s1.9,12,1.59,11.8-4.53-2-4.71-2-3.79,3.12-3.88,3S46.94,28.45,47.16,28.26Z"/><path class="cls-2" d="M48.66,33.74c.05-.12.67-.19.79,0a7.11,7.11,0,0,1,.19,2.38c-.16.18-.77.18-.77.18A21,21,0,0,1,48.66,33.74Z"/><path class="cls-2" d="M49.51,30.43c-.14-.21.68-.61.68-.61s1.37,1.38,1.43,1.23.31-1.47.55-1.5,1.23.18,1.1.3-1,4.41-1,4.41-1.1,0-1.1-.25.28-2,.28-2S49.57,30.53,49.51,30.43Z"/><path class="cls-2" d="M53.64,33.71c-.15-.05.25-.71.43-.68a5.89,5.89,0,0,1,1.62,1.5c0,.28.06.61,0,.61S53.73,33.74,53.64,33.71Z"/><path class="cls-2" d="M53.55,35a9.38,9.38,0,0,1,2.29,1.65c.06.24.22.7,0,.67a11.8,11.8,0,0,1-2.6-1.37A3.47,3.47,0,0,1,53.55,35Z"/></svg>