<svg id="Layer_1" data-name="Layer 1" xmlns="http://www.w3.org/2000/svg" width="64" height="64" viewBox="0 0 64 64"><defs><style>.cls-1{fill:#fff;}.cls-2{fill:#806b6c;}.cls-3{fill:#fff8f4;}.cls-4{fill:#fad3cd;}.cls-5{fill:#e4f4fe;}.cls-6{fill:#cceafc;}.cls-7{fill:#fff9c5;}.cls-8{fill:#fff3b3;}</style></defs><title>baby-bed</title><path class="cls-1" d="M11.27,62.65a8.12,8.12,0,0,1-2.13-.12A2.84,2.84,0,0,1,7.4,61.08a3.54,3.54,0,0,1-.3-2.7s1.13-3.32,3.49-4.29l.47-.18c-.07-2.85-.22-8.76-.4-12-.13-2.38-.26-3.82-.35-4.62-2.54-1.51-2.84-2.08-3-2.79-.25-1.1.3-1.89,1.94-4.21l.72-1,0-.35c-1.31-.55-3.07-1.6-3.55-3.4a5.35,5.35,0,0,1,1-4.5A5.64,5.64,0,0,1,12,18.81h.43a6,6,0,0,1,4.83,2.53,5,5,0,0,1,.53,4.4,5.41,5.41,0,0,1-1.12,1.83l1.29,0c4.05,0,10.17-.12,14.17-.12h1.32l13.48,0a4.69,4.69,0,0,1-.6-1.86,6,6,0,0,1,1-4.68,5.8,5.8,0,0,1,4.35-1.84h.43A5.59,5.59,0,0,1,57,21.67a4.94,4.94,0,0,1,.19,4.88,5.84,5.84,0,0,1-2.67,2.68l0,.3c3.25,3.89,3.18,4.26,3,5.12C57.28,36,55.17,37.36,54,37.91l-.93,16.77A11,11,0,0,1,55,57c.55,1.07.86,3.65-.54,4.59-.47.31-.71.47-6.22.47-2.76,0-4.14,0-4.62-1.59-.28-.92-.12-4.59,2.22-6,.31-.18.6-.34.87-.47-3.9-.18-11.54-.47-17.83-.47-3.76,0-6.79,0-9,0l-2.76,0c0,.46,0,1,0,1.47a12.46,12.46,0,0,1,2.12,2.49c1.06,1.81,1,3.84-.15,4.7C18.55,62.47,18.31,62.65,11.27,62.65ZM39.06,27a4.74,4.74,0,0,1-3.58-1.48h0a3,3,0,0,1-.23.35,2.87,2.87,0,0,1-2.21,1,2.28,2.28,0,0,1-1.52-.54l-.33-.23a4.32,4.32,0,0,1-2.06.75,1.79,1.79,0,0,1-.57-.08,2.63,2.63,0,0,1-1.65-1.32,2.18,2.18,0,0,1-.16-.45,5,5,0,0,1-2.74.8h0a6.1,6.1,0,0,1-1.95-.33A4.56,4.56,0,0,1,19,20.59a4.22,4.22,0,0,1,2.15-3.26,8.51,8.51,0,0,1,3.22-6,11.73,11.73,0,0,1,4.29-2l0-1a6.51,6.51,0,0,1-2-1.42c-.81-.91-1.78-2.87-1-4.22.6-1,1.61-1.1,2.77-1.22l.28,0c.53,0,1.73-.07,2.59-.07,4,0,4.87.19,5.51,1.21.85,1.33.19,3.29-.43,4.21A5.1,5.1,0,0,1,33.8,8.65l0,.78A9.28,9.28,0,0,1,39,13.09a12.22,12.22,0,0,1,1.46,4.42,2.63,2.63,0,0,1,1.68.9,2.32,2.32,0,0,1,.43,2.6,2.35,2.35,0,0,1,.08.62c0,.13,0,.26,0,.39a2.35,2.35,0,0,1,.74,1.89,3.06,3.06,0,0,1-1.76,2.6A7.39,7.39,0,0,1,39.06,27Zm-4.76-8.9a2.73,2.73,0,0,1,.85.16,5.56,5.56,0,0,0-.83-2.5L34,15.47l0,2.15A2.43,2.43,0,0,1,34.3,18.08Zm-7.62-.86a4.45,4.45,0,0,1,1.08.8,2.17,2.17,0,0,1,.9-.29c0-.94,0-2.06-.05-3.22a2.41,2.41,0,0,0-1,.75A5.23,5.23,0,0,0,26.68,17.22Z"/><path class="cls-2" d="M22.69,23.57c2.41.81,4.22-.66,4.22-2.69S24.5,18.6,24.5,18.6A8,8,0,0,1,26,14c1.56-2,4.56-1.91,4.56-1.91s.16,8,.1,8.22-1.44-.53-1.72-.62-.66.53-.75.75,1.31,1.84,1.31,1.84l-.81,2.13c-.06.15.19.34.41.4a20.66,20.66,0,0,0,2.12-1,7.62,7.62,0,0,1,1.59,1,.8.8,0,0,0,.88-.25c.28-.34-.25-2.41-.25-2.41s1.25-1.59,1.09-2-1.75.28-1.9.15-.1-.87-.07-1.19-.59-.53-.59-.53l0-6.31a9.91,9.91,0,0,1,3.63,1.91c1.62,1.4,1.72,6,1.72,6s-1.79,2.43-.41,3.9,3.66.6,3.91.5.43-.56.46-.9-1.21-1-1.21-1a2.57,2.57,0,0,0,.5-1.07c0-.4-.22-.37-.47-.56s.31-.56.5-.78.15-.31-.1-.63-2-.25-2-.25a11.09,11.09,0,0,0-1.31-5.31C35.81,11.7,31.88,11,31.88,11L31.75,7a9,9,0,0,0,1-.16,3.37,3.37,0,0,0,2-1.22,2.49,2.49,0,0,0,.41-2c-.22-.34-5.28-.31-6.22-.22s-1.44.13-1.53.29a2.54,2.54,0,0,0,.75,1.87A7.42,7.42,0,0,0,30.56,7l.13,4.12A8.32,8.32,0,0,0,25.53,13c-2.78,2.06-2.47,5.81-2.47,5.81C20.31,19.07,20.28,22.76,22.69,23.57Zm30,4.16a3.6,3.6,0,0,0,2.75-2.1c1-2-.41-4.72-3.66-4.53S48,23,48.28,25.38A2.66,2.66,0,0,0,51,27.73l-.19,1.75s-11.34,0-17.37,0-19.78.18-19.88.15a19.18,19.18,0,0,1-.12-2.25,4.11,4.11,0,0,0,2.47-2.28c.62-1.72-.41-4.06-3.6-4.25a3.51,3.51,0,0,0-4,4.13c.44,1.65,3.47,2.43,3.47,2.43s.22,2,.22,2.28S9.16,33.6,9.25,34s2.91,2,2.91,2a51.91,51.91,0,0,1,.5,5.75c.25,4.5.44,13.75.44,13.75a4.12,4.12,0,0,0-1.75.44c-1.22.5-2.16,2.5-2.35,3.06a1.41,1.41,0,0,0,.66,1.59c.47.13,8.09,0,8.22-.12s.28-1-.38-2.1a13.83,13.83,0,0,0-2.37-2.59s-.07-4.19,0-4.31,4.84,0,13.81,0,20.5.59,20.5.59l-.35,3.19a5.5,5.5,0,0,0-2.15.87c-1.35.82-1.44,3.41-1.35,3.72s7.72.1,7.82,0a2.83,2.83,0,0,0-.13-2,14.21,14.21,0,0,0-2.19-2.37l1.07-19.22s.18.09.81-.06a7.46,7.46,0,0,0,2.62-1.94c.07-.34-3.12-4.13-3.12-4.13ZM18.66,45a20.48,20.48,0,0,1-4.06.22c-.07-.1-.88-9.38-.82-9.44a2.31,2.31,0,0,0,2.1.47c1.43-.25,1.65-.66,1.65-.66S18.91,44.82,18.66,45Zm4.09-.22a12.89,12.89,0,0,1-2.69.06c0-.12-1.25-8.94-1.06-9.09a1.86,1.86,0,0,0,1.28.53,4.32,4.32,0,0,0,1.78-.44S22.91,44.73,22.75,44.79Zm4.6-.06a18.87,18.87,0,0,1-3.19,0c0-.16-.81-9.16-.72-9.25s.78.87,1.72.84a8.08,8.08,0,0,0,2.09-.69C27.25,35.73,27.47,44.7,27.35,44.73Zm4.62.12a19,19,0,0,1-3.16.1c-.06-.16-.59-8.79-.5-8.94a3.25,3.25,0,0,0,1.94.62A6.33,6.33,0,0,0,32.06,36S32.19,44.82,32,44.85Zm4.28,0a14.63,14.63,0,0,1-2.9-.06c-.13-.16-.22-9.62-.16-9.78,0,0,.91,1.22,1.87,1.22a3.57,3.57,0,0,0,1.79-.56S36.47,44.85,36.25,44.88Zm4.44,0c-.09.07-3.25-.09-3.25-.09s.34-9.12.53-9.28.5.91,1.53.91A2.64,2.64,0,0,0,41,36.1S40.78,44.85,40.69,44.91Zm4.06,0a22.18,22.18,0,0,1-2.94,0c-.06-.12.19-8.9.35-9a11.31,11.31,0,0,0,1.87.19,3.83,3.83,0,0,0,1.69-.53S44.88,44.91,44.75,44.91ZM50,44.82a32.81,32.81,0,0,1-4-.19c0-.15.63-8.15.69-8.31s1.34.72,2.25.38a4,4,0,0,0,1.56-1.25S50.19,44.82,50,44.82Z"/><path class="cls-3" d="M13.31,30.51a32.47,32.47,0,0,0-2.78,3.37c.19.1,1.13.82,1.38.75s.78-1.78,1.12-1.84a1.46,1.46,0,0,1,.63,0s-.6,1.66.5,2.06a2.31,2.31,0,0,0,2.65-.5c.44-.62.32-1.72.66-1.81s1.19-.12,1.28.13-.06,1.53,1,2.09a2.15,2.15,0,0,0,2.38-.19c.31-.31.28-1.81.56-1.94s.91-.34,1,0,.19,2.53,1.47,2.47,1.72-1.5,1.84-1.81.16-.59.47-.69a1.25,1.25,0,0,1,.91.06c.09.13,0,2.79,1.78,2.79s1.93-2.44,2.18-2.63,1-.34,1.13-.19.31,2.44,1.84,2.38,1.69-2.28,2.07-2.38.81,0,.87.16.25,2.34,1.06,2.56a1.36,1.36,0,0,0,1.66-1.06c.19-.72.09-1.75.28-1.84s.91-.1.91,0S42.1,35,43.38,35s1.78-2.1,2.12-2.28,1.53-.32,1.63,0-.78,2.65.68,2.9,2.1-1.78,2.22-2.06.25-.59.44-.63.69,2.13,1.41,2.25a3.29,3.29,0,0,0,2.15-1C54,34,51.6,30.48,51.19,30.45s-12.84.06-21.53.12S13.6,30.41,13.31,30.51Z"/><path class="cls-4" d="M11.6,22c.86-.14,3,.53,2.65,2.16s-3.06,1.81-4,1.18S9.47,22.38,11.6,22Z"/><path class="cls-4" d="M51.38,22.51A2,2,0,0,1,54,24.66c-.06,1.66-3.37,2-4,.5S49.91,22.85,51.38,22.51Z"/><path class="cls-5" d="M14.85,46.91c.2-.08,10-.15,17.4-.28s17.69-.15,17.72,0a23.79,23.79,0,0,1-.41,3.6l-.62-.13a12.34,12.34,0,0,0-.09-2.75,2.12,2.12,0,0,0-1.29,0,26.82,26.82,0,0,1,.16,2.72c-.12,0-.78-.09-.78-.09a13.36,13.36,0,0,0-.63-2.57c-.18,0-1.21.1-1.18.32A14.12,14.12,0,0,1,45.5,50c-.12,0-.72-.1-.72-.1a17.17,17.17,0,0,0-.65-2.22c-.13,0-1.19.1-1.1.29s.38,2.06.38,2.06l-1.35,0a9.12,9.12,0,0,0-.56-1.91c-.15,0-1.19.06-1.15.25s.5,1.66.34,1.66-15.44-.47-20-.38-5.72.1-5.72.1S14.63,47,14.85,46.91Z"/><path class="cls-6" d="M10.91,58.7c-.25-.06.94-1.6,2.65-1.32s2.22,1.19,2.07,1.32A41.28,41.28,0,0,1,10.91,58.7Z"/><path class="cls-6" d="M47.38,58.23a2.49,2.49,0,0,1,2.4-1.35c1.41.22,1.94,1.25,1.75,1.38A32,32,0,0,1,47.38,58.23Z"/><path class="cls-7" d="M23.75,19.73c1.08,0,2.41.65,1.72,2.09a1.8,1.8,0,0,1-3.12-.06A1.56,1.56,0,0,1,23.75,19.73Z"/><path class="cls-7" d="M39.13,20.29c.24-.07.43.09.37.19s-.75.53-.56.75.47.31.41.53-.82.72-.5,1,1,.72.68,1a1.32,1.32,0,0,1-1.84-1A2.12,2.12,0,0,1,39.13,20.29Z"/><path class="cls-7" d="M30.19,21.26c.16.06.78.31.91.15s.21-.81.43-.68.25.68.38.72.78-.35.94-.22-.47.81-.44,1,.62,1.56.44,1.53S31.41,23,31.19,23s-1,.59-1.16.47.57-1.1.57-1.22A7.85,7.85,0,0,0,30.19,21.26Z"/><path class="cls-8" d="M28.78,4.35a25.55,25.55,0,0,1,5.1.13A3.32,3.32,0,0,1,31.1,6,2.2,2.2,0,0,1,28.78,4.35Z"/></svg>