<svg id="Layer_1" data-name="Layer 1" xmlns="http://www.w3.org/2000/svg" width="64" height="64" viewBox="0 0 64 64"><defs><style>.cls-1{fill:#fff;}.cls-2{fill:#806b6c;}.cls-3{fill:#fad3cd;}.cls-4{fill:#fff8f4;}.cls-5{fill:#f6b3aa;}</style></defs><title>rompers-girl</title><path class="cls-1" d="M34.13,61.23c-9.42,0-9.91-.57-10.38-1.12A2.82,2.82,0,0,1,23.21,59c-.34-1.12-1.4-4.53-4.46-6.36-5-3-5.13-3-5.35-4.17-.07-.37-.07-.37.94-11.44.32-3.59.66-7.28.8-9a47,47,0,0,0-5.5-5.17c-.76-.55-1.39-1-1.88-1.3-1.46-1-2.71-1.81-2.39-3.45a3.84,3.84,0,0,1,1-1.75,2.36,2.36,0,0,1-.24-2.13c.4-1,3.88-4.88,7.4-7.36,3.32-2.34,7.36-4.09,8.75-4.09a2.84,2.84,0,0,1,.5.06c.67.15,1,.51,2.18,1.56a24.59,24.59,0,0,0,4,3.27A7.26,7.26,0,0,0,33.29,9l1.06,0a9.87,9.87,0,0,0,5.34-2.15,11.25,11.25,0,0,0,1.49-1.43,4,4,0,0,1,2.07-1.48,2.38,2.38,0,0,1,.46,0c1.41,0,4.66,1.56,7.46,4.08.07.06,7.31,6.6,7.5,8.88a3.17,3.17,0,0,1-.46,1.88,3.1,3.1,0,0,1-.12,3c-.22.31-.54.78-9.94,7.62.72,20.2.61,20.5.42,21-.34.88-1,1.22-2.3,1.83a21.28,21.28,0,0,0-4.63,2.81,51,51,0,0,0-4,4c-1.56,1.7-2,2.16-2.86,2.29A5.22,5.22,0,0,1,34.13,61.23Z"/><path class="cls-2" d="M17.21,27.31a56.47,56.47,0,0,0-6.41-6.09C8.3,19.44,7.24,19,7.33,18.5A10.63,10.63,0,0,1,9,16.44S7.86,15.28,8,15A31.27,31.27,0,0,1,14.68,8.5C18.27,6,21.93,4.69,22.33,4.78S25.61,8.06,28,9.4a9.57,9.57,0,0,0,6.44,1.54,11.84,11.84,0,0,0,6.4-2.54c1.38-1,2.32-2.46,2.79-2.56s3.37,1,6.18,3.56,6.78,6.82,6.85,7.57-.85,1.43-.85,1.43,1,1.6.63,2.13-10.35,7.78-10.35,7.78.75,20.84.6,21.25S43,51.09,40.33,53.4s-5.4,5.75-5.81,5.82-9.06-.19-9.25-.41-1.09-5.28-5.5-7.91-4.37-2.68-4.41-2.84S17.08,29.06,17.21,27.31Z"/><path class="cls-3" d="M8.36,18.09c.17-.34,1.13-1.28,1.35-1.15s7.69,6.93,7.69,7.25-.1,1.71-.22,1.62-3.19-3.19-5.44-5S8.27,18.28,8.36,18.09Z"/><path class="cls-4" d="M10.38,15.19c-.19-.16-.48-.4-.34-.6a27.75,27.75,0,0,1,6.45-5.26c3.22-1.74,5-2.41,5.34-2.39s1.33,1.25,2.88,2.6a15.38,15.38,0,0,0,5.15,2.82,40.37,40.37,0,0,0,4.24.54c0,.13-.22,11.6-.38,11.6s-3.92-.27-4-.16-.27.88.05,1a31.29,31.29,0,0,0,5.07.28c0-.12.38-12.81.44-12.82a13.73,13.73,0,0,0,4.88-2c3-1.81,4.2-2.9,4.32-2.9a17.92,17.92,0,0,1,6.38,4.69c2.94,3.29,3.69,4.78,3.64,4.89s-10.7,7.4-10.7,7.62.15,4.38.31,7.52.67,15.89.55,16l-2,.92a11,11,0,0,0-2,1.3s-3.16-3.45-3.32-3.49-.68.58-.62.69,3.19,3.36,3.09,3.47-1.22.81-1.22.81A42.84,42.84,0,0,0,35.65,49c-.22,0-.75.36-.68.56s3,3.27,3,3.34-1.11,1.21-1.16,1.19-3-3.09-3.17-3-.64.4-.55.62,3,2.94,3,3.08a12,12,0,0,1-1.31,1.34S32,53,31.82,53s-.8.56-.74.67,3.16,3.12,3.11,3.2-.44.52-.44.52-2.93-.28-4.81-.32-2.14.05-2.12-.06a11.89,11.89,0,0,0-4.27-6.42c-3.4-2.61-5.08-3.28-5.06-3.42s.75-8.38,1-11.86.68-12,.57-12.31S12.5,16.87,10.38,15.19Z"/><path class="cls-2" d="M13.69,13.69a31.23,31.23,0,0,1,4.1-3.22c.14.12.67.76.56,1S14.93,15.09,14.66,15,13.61,13.86,13.69,13.69Z"/><path class="cls-2" d="M31.52,14.34a1.9,1.9,0,0,1,1.83,2.27,2.14,2.14,0,0,1-3.3,1.06C29.24,16.79,28.93,14.42,31.52,14.34Z"/><path class="cls-3" d="M31.54,15.11a.81.81,0,0,1,.78,1,.9.9,0,0,1-1.4.45A.81.81,0,0,1,31.54,15.11Z"/><path class="cls-2" d="M31.46,19.88a1.65,1.65,0,0,1,1.6,2,1.87,1.87,0,0,1-2.88.93C29.47,22,29.2,20,31.46,19.88Z"/><path class="cls-3" d="M31.48,20.85a.69.69,0,0,1,.68.83.79.79,0,0,1-1.22.4C30.64,21.75,30.52,20.87,31.48,20.85Z"/><path class="cls-2" d="M31.75,29.62s1-1.72,4.32-1.39,4.15,2.6,4.08,5.28-2,4.39-4.35,6.25S32.66,42,32.33,42A6.62,6.62,0,0,1,30.15,42a26.58,26.58,0,0,1-5.91-5.83c-1.88-2.87-1.06-5.62.16-6.7A5.38,5.38,0,0,1,31.75,29.62Z"/><path class="cls-5" d="M30.82,32.53c.05.29.39.67,1.11.59a.9.9,0,0,0,.9-.81,2,2,0,0,1,2.08-2.08c2,0,3.25.39,3.44,2.91a4.29,4.29,0,0,1-2.08,4.19c-1,.78-4.42,3.14-4.75,3A24.35,24.35,0,0,1,26,35.5c-1.48-2.06-1.28-4.05.11-4.83S30.38,29.89,30.82,32.53Z"/><path class="cls-2" d="M20.21,36.4c.09-.12,1.26,0,1.25.38a37.92,37.92,0,0,1-.5,4.94c-.21,0-1,.43-1.19,0A28,28,0,0,1,20.21,36.4Z"/><path class="cls-2" d="M38.4,45.26c0-.14.51-.68.75-.48s2.9,4,2.71,4.36-.31.58-.5.44S38.41,45.34,38.4,45.26Z"/><path class="cls-2" d="M40.44,43.79c0-.06.28-.46.39-.39s3.17,4,3,4.19-.15.6-.48.44A49.6,49.6,0,0,1,40.44,43.79Z"/><path class="cls-2" d="M42,41.87c-.05-.08.36-.5.48-.36s1.06,1.25.88,1.5-.28.38-.44.28A10,10,0,0,1,42,41.87Z"/><path class="cls-3" d="M45.91,26.79c-.12.17-.12-1,0-1.1S55,19,55.08,19.06a2.33,2.33,0,0,1,.3,1.05C55.3,20.22,46,26.73,45.91,26.79Z"/></svg>