<svg id="Layer_1" data-name="Layer 1" xmlns="http://www.w3.org/2000/svg" width="64" height="64" viewBox="0 0 64 64"><defs><style>.cls-1{fill:#fff;}.cls-2{fill:#806b6c;}.cls-3{fill:#fff3b3;}.cls-4{fill:#fff9c5;}</style></defs><title>rubber-ducky</title><path class="cls-1" d="M32.32,56.24a28.8,28.8,0,0,1-2.91-.15c-5.69-.6-9.25-2.3-11.91-5.67-3-3.81-4.13-7.94-3.3-11.94a28.84,28.84,0,0,1,3-7.34L17,31.07a5.69,5.69,0,0,1-.85-.37,9.73,9.73,0,0,1-3.49.67,8.94,8.94,0,0,1-2.19-.27,4.18,4.18,0,0,1-3.28-3.05,5.2,5.2,0,0,1,1.39-4.68L9,23a9.67,9.67,0,0,1,.43-6.19c1.52-4.06,4.87-7,9.69-8.61a10.24,10.24,0,0,1,3.21-.48,17.22,17.22,0,0,1,9.58,3.16c3,2.37,3.93,7.5,3,11.09a10.52,10.52,0,0,1-.86,2.31h.11a23.49,23.49,0,0,1,3.64.3c5.48.86,7.83,2.72,9.22,3.83a16,16,0,0,1,1.37,1.2L51,28a7.42,7.42,0,0,1,3.24-1.13A2.51,2.51,0,0,1,55,27c1.63.54,1.91,2.74,1.95,3.66.08,1.81.14,8-2.46,12.55A24.89,24.89,0,0,1,44,53.36,25.29,25.29,0,0,1,32.32,56.24Z"/><path class="cls-2" d="M11.45,23.7s-1.69-2.14-.19-6.14,4.82-6.23,8.44-7.42,8.75.64,10.94,2.35,3.12,5.84,2.33,9a8.93,8.93,0,0,1-3,4.61l.23.77s2.36-1.08,7.25-.31,6.9,2.31,8.29,3.41a14.76,14.76,0,0,1,2.27,2.23l4.05-2.6a5.05,5.05,0,0,1,2.23-.79c.25.08.54.91.58,1.85s.25,7.23-2.19,11.46A23.32,23.32,0,0,1,29.62,54.1c-5.19-.54-8.25-2-10.54-4.92s-3.71-6.48-2.92-10.29,3.94-8.65,3.94-8.77-.15-.79-.15-.79a6,6,0,0,1-2.29-.15,2.62,2.62,0,0,1-1.29-.81,7.36,7.36,0,0,1-5.4.79c-3-.77-1.75-3.67-1-4.31A11.57,11.57,0,0,1,11.45,23.7Z"/><path class="cls-3" d="M13.28,24.39c.18-.05.19-.33.15-.44a5.48,5.48,0,0,1-.79-4.71,10.83,10.83,0,0,1,5-6.18c2.33-1.42,4-1.59,7.62-.84s5.46,1.71,6.11,5.19-.81,5.9-1.48,6.46-1.73,1.29-1.65,1.56a27.12,27.12,0,0,0,1.36,3.63.68.68,0,0,0,.54.06s2.67-1.63,7.17-.59,7.31,3,8.25,4a11.77,11.77,0,0,0,1.87,1.86,2.31,2.31,0,0,0,1.5-.29c.75-.44,3.81-2.46,4-2.48a11.24,11.24,0,0,1-.23,4.62A28.92,28.92,0,0,1,51,41c0,.07-1.83-2.68-2-2.68s-.73.45-.68.6,2.12,3.19,2.08,3.31-.85,1.15-.85,1.15-2.53-3.31-2.65-3.29-.83.56-.75.75S49,44.08,48.89,44.2s-1.36,1.19-1.36,1.19-2.25-3.48-2.37-3.46-.73.48-.73.65S46.87,46,46.87,46l-1.36,1.13S43.39,44,43.24,44s-.77.5-.73.65,2.15,3.14,2.11,3.25a4.72,4.72,0,0,1-1.17.69c-.06-.05-1.9-2.73-2.08-2.78s-.73.42-.71.55,2.06,2.83,2,2.89S41,50.1,41,50.1s-1.73-2.67-1.85-2.67-.71.4-.65.6,1.54,2.44,1.46,2.55a26.89,26.89,0,0,1-9.21,1.85,13.83,13.83,0,0,1-10.52-5.17c-2.06-2.7-3.29-6.7-1.81-10.37a55.31,55.31,0,0,1,3.18-6.63c.11-.14.17-.23.15-.33s-.25-.73-.25-.73,1.21-.71,1.44-.92a.88.88,0,0,0,.33-.54,4.82,4.82,0,0,0-.39-.73,10,10,0,0,1-3.48.59c-1.46-.15-1.71-.23-1.63-.36s.88-.75.86-.81a7.69,7.69,0,0,0-.36-1.33,3,3,0,0,0-.58,0s-2.13,2.48-4.4,2.58-3.46-.54-2.81-1.48A6.42,6.42,0,0,1,13.28,24.39Z"/><path class="cls-2" d="M14.85,18c-.24,0,.18-1.33,1.5-2.52s2.12-1.19,2.23-1.14a1.28,1.28,0,0,1,.27.79,3.83,3.83,0,0,0-2.07,1.14c-1,1.13-.89,1.77-1.08,1.84A2.78,2.78,0,0,1,14.85,18Z"/><path class="cls-2" d="M18.41,19.31a2,2,0,0,1,2.85,1c.32,1.08-1,2.37-2.46,2S17.1,20.39,18.41,19.31Z"/><path class="cls-2" d="M28.53,17c0-.1.59-.44.8-.33a1.73,1.73,0,0,1,.7,1.71c0,1.14-.37,1.71-.52,1.73s-.62-.25-.64-.4a3.13,3.13,0,0,0,.29-1.42A3.58,3.58,0,0,0,28.53,17Z"/><path class="cls-2" d="M20.18,43.45a4.73,4.73,0,0,1-.63-3.71,5.41,5.41,0,0,1,1.73-3.35c.19,0,.63.42.61.58s-1.31,1.52-1.36,3,.9,3.08.84,3.27S20.35,43.51,20.18,43.45Z"/><path class="cls-2" d="M33.93,36.08A4.55,4.55,0,0,1,38,34c2.86.09,4.75,1.5,4,4.63S36,46.45,35.58,46.68,31.14,45.33,29,42.85s-1.77-5.36,0-6.59A5,5,0,0,1,33.93,36.08Z"/><path class="cls-4" d="M34,38.51c.16.22,1-.16,1-.25a2.93,2.93,0,0,1,3.06-2.33c2.63,0,2.9,1.67,1.9,3.33a51.28,51.28,0,0,1-4.25,5.17c-.6.73-1.1.81-1.21.75a29.57,29.57,0,0,1-4.27-3.48c-1.35-1.5-1.17-3.1-.37-3.83A2.73,2.73,0,0,1,34,38.51Z"/></svg>