<svg id="Layer_1" data-name="Layer 1" xmlns="http://www.w3.org/2000/svg" width="64" height="64" viewBox="0 0 64 64"><defs><style>.cls-1{fill:#fff;}.cls-2{fill:#806b6c;}.cls-3{fill:#fffce2;}.cls-4{fill:#fff9c5;}.cls-5{fill:#d8b8ac;}.cls-6{fill:#e4f4fe;}.cls-7{fill:#cceafc;}.cls-8{fill:#ecf7fe;}</style></defs><title>stroller-full</title><path class="cls-1" d="M25.67,57.43a11.42,11.42,0,0,1-6.11-1.72,10.7,10.7,0,0,1-4.84-12.58c.51-1.73,2.12-4.81,3.73-6a13.34,13.34,0,0,1-1.79-5,24.1,24.1,0,0,1-.23-5.81,42.72,42.72,0,0,0-3.59-3.17,3.45,3.45,0,0,0-1.73-.42,5.76,5.76,0,0,1-.93-.11,3.27,3.27,0,0,1-2.66-2.86A3.46,3.46,0,0,1,9.34,16l.35-.2a6.82,6.82,0,0,1,3.12-1l.46,0c1.36,0,3.55.49,6.29,2.84,2,1.7,4.31,3.93,5.37,5l8.57.12h2.69a4.93,4.93,0,0,1,.68-.71c-5.8-11.9-5.74-12-5.21-13.08,1.11-2.23,9.19-2.36,9.27-2.36a21.11,21.11,0,0,1,2.28.11c6,.6,8.86,5.49,10.06,7.58a17.65,17.65,0,0,1,2.26,8.28,4,4,0,0,1-.23,1,3.56,3.56,0,0,1,.78,1.37c.5,1.64,1.08,7.84-1.57,12.26-1.81,3-3,4.54-4.64,5.52a7.56,7.56,0,0,1,3.81,1.5,6.07,6.07,0,0,1,2.19,5.35,6.93,6.93,0,0,1-7.12,6.82,7,7,0,0,1-6.52-3.93,7.67,7.67,0,0,1-.82-4.27L37.7,45.33a10.77,10.77,0,0,1-1.47,6.89A13.41,13.41,0,0,1,25.67,57.43Z"/><path class="cls-2" d="M13,16.82c.85-.07,2.69.13,5.28,2.35s5.85,5.43,5.85,5.43,6.43.1,9.37.13,4-.06,4-.06,0-.5.72-1.13a7.44,7.44,0,0,1,1.25-.87s-6.13-12.54-6-12.85S38.32,8.2,43,8.67s7,4,8.53,6.59a15.89,15.89,0,0,1,2,7.09,3.24,3.24,0,0,1-1,1.82s1.35.31,1.66,1.34,1,6.69-1.38,10.66S49.42,41,47.07,41.79a17.19,17.19,0,0,1-3.34.91L45.92,45s4-1.22,6.53.78,1.37,6.56-1,7.91-6.09.72-7.41-2.1-.31-4.15-.31-4.15l-6-4.6s-.56.19-1.15.35a7.33,7.33,0,0,1-1.25.18s1.28,4.66-.79,7.72S26,57.35,20.61,54a8.75,8.75,0,0,1-4-10.31c.5-1.69,2-4.28,3.06-5s1.66-1.07,1.66-1.07a10.26,10.26,0,0,1-2.72-5.81,19.12,19.12,0,0,1-.1-6.25A54.76,54.76,0,0,0,14,21.48a6.79,6.79,0,0,0-3.28-.81,1.33,1.33,0,0,1-1.16-1.1,1.57,1.57,0,0,1,.75-1.78A5.71,5.71,0,0,1,13,16.82Z"/><path class="cls-3" d="M13.29,17.7A10,10,0,0,1,17.57,20c1.85,1.56,11.91,12,11.75,12.13s-.93.81-.93.81S18.23,23,15.89,21.45s-3.66-1.72-4.5-1.75-.91-.63-.69-1A3.48,3.48,0,0,1,13.29,17.7Z"/><path class="cls-4" d="M29.73,33.92c-.08-.08.47-1.1.91-.91a23.37,23.37,0,0,1,3.47,2.37c0,.19-1.35,1.47-1.57,1.29s-.93-.85-1.15-.75S30.17,37.85,30,37.76l-1-.38a15,15,0,0,0,1.72-2.12A12,12,0,0,0,29.73,33.92Z"/><path class="cls-3" d="M33.45,37.45,34.86,36S45,45.54,45,45.79s-.59.84-.59.84S33.67,37.57,33.45,37.45Z"/><path class="cls-5" d="M48.54,46.35a3.14,3.14,0,0,1,3.1,4.25c-.88,2.07-4.57,2.6-5.78.47S45.42,46.38,48.54,46.35Z"/><path class="cls-2" d="M48.17,47.6c1.09-.09,2.37.91,1.81,2.16a1.62,1.62,0,0,1-2.87.37A1.56,1.56,0,0,1,48.17,47.6Z"/><path class="cls-6" d="M48.33,48.58c.44,0,.94.36.72.86a.64.64,0,0,1-1.14.14A.62.62,0,0,1,48.33,48.58Z"/><path class="cls-7" d="M30.86,38.13l.46-.87s5.57,4.44,5.47,4.47-1.93-.06-1.93-.06a5.33,5.33,0,0,0-2.25-2.79C31,38,30.86,38.13,30.86,38.13Z"/><path class="cls-5" d="M25.86,38.76c3,0,6.78,1.34,7.62,4.91s0,5.4-.72,6.5a5.91,5.91,0,0,1-1.15,1.37S30.48,49.7,30.2,49.7s-.88.34-.84.43a14.14,14.14,0,0,1,1.21,2.1,9.54,9.54,0,0,1-.9.4,15.65,15.65,0,0,0-1.31-2.28c-.22-.06-.91.25-.85.44s1.06,2.22,1,2.25a4.55,4.55,0,0,1-1.22.16,10.79,10.79,0,0,0-1.09-2.07c-.19,0-.78.1-.75.22a17.46,17.46,0,0,1,.56,2,8,8,0,0,1-6-2.72c-2.16-2.78-2.31-6.68-.53-9.09S23.26,38.76,25.86,38.76Z"/><path class="cls-2" d="M31.11,49.07c-.07-.28.43-.59.71-.47s.69,1,.57,1.22-.44.53-.57.47A5.9,5.9,0,0,1,31.11,49.07Z"/><path class="cls-2" d="M19.2,44.1a3,3,0,0,1,.72-1.93c.9-1.22,1.31-1.57,1.59-1.44s.44.44.38.59-1.22,1-1.41,1.63A4.38,4.38,0,0,1,20.11,44C20,44.2,19.14,44.2,19.2,44.1Z"/><path class="cls-2" d="M22.84,42.38c1-1.34,4.57-1.71,6.51.75s1.09,5.1-.88,6.29-4.78,1.06-6-.69S21,44.85,22.84,42.38Z"/><path class="cls-6" d="M24.13,43a3.6,3.6,0,0,1,4.93,1.62c.91,2.22-.59,3.5-2,4.22a3,3,0,0,1-4-1A3.5,3.5,0,0,1,24.13,43Z"/><path class="cls-2" d="M25.4,44.38c1-.34,2.33.13,2.12,1.5a1.58,1.58,0,0,1-2.3,1.44A1.67,1.67,0,0,1,25.4,44.38Z"/><path class="cls-7" d="M20.23,27s9.25,8.5,9.16,8.65S28,37.07,28,37.07A13.58,13.58,0,0,0,25.2,37c-1.5.09-2,.09-2,.09a11.67,11.67,0,0,1-2.63-4.62A12.77,12.77,0,0,1,20.23,27Z"/><path class="cls-7" d="M25.86,26.29c.12,0,12.25.22,12.25.22s2.5,2.62,4.43,1.25S44.48,26,44.48,26s7.91-.13,8,.06a28.12,28.12,0,0,1-.4,5.94A31,31,0,0,1,51,35.23a41.78,41.78,0,0,0-2.93-3.69c-.25,0-.79.5-.79.5s3.22,3.78,3.16,4a6.69,6.69,0,0,1-.56.87s-2.85-3.81-3.16-3.81-.87.66-.87.66,3.28,3.9,3.15,4.09a5.8,5.8,0,0,1-.65.66s-2.88-4-3.19-4-.78.47-.75.62,3.28,3.78,3.12,4a2.76,2.76,0,0,1-.84.5S44,35.92,43.79,35.88s-.84.25-.78.41,2.56,3.72,2.41,3.88a6.41,6.41,0,0,1-1.31.4S41.86,37.1,41.67,37s-.78.22-.81.31,2.31,3.38,2.15,3.47a8.53,8.53,0,0,1-1.19.25Z"/><path class="cls-8" d="M40.79,23.67c.83-.19,2.1.62,1.63,1.75a1.69,1.69,0,0,1-2.66.5C39.11,25.23,39.67,23.92,40.79,23.67Z"/><path class="cls-7" d="M36.2,11.1c.2-.24,6.41-1.31,9.47.16s5.22,7.25,5.53,8.47a6.15,6.15,0,0,1,.28,1.59s-2.62-3.19-3-3.12-.9.75-.78.87A45.91,45.91,0,0,1,51,22.85a3.27,3.27,0,0,1-.37.6s-3.69-3.91-4-3.94-.78.62-.66.78,4,3.66,3.72,3.78a2,2,0,0,1-1,0C48.7,24,46.14,21.6,46,21.6s-.72.57-.62.66,2.15,1.87,1.93,1.91-2.68.12-2.68.12a3,3,0,0,0-1.88-1.75,5.58,5.58,0,0,0-2-.37S36,11.29,36.2,11.1Z"/><path class="cls-2" d="M38.23,12.51c0-.09,1.13-.28,1.28-.09a8,8,0,0,1,.75,2.65c-.15.22-.75.56-.9.31S38.07,12.82,38.23,12.51Z"/><path class="cls-2" d="M49,30.6s.34-.56.63-.47A7.18,7.18,0,0,1,51.26,32c0,.19-.28.66-.4.62A24.14,24.14,0,0,1,49,30.6Z"/></svg>